<svg width="16" height="18" viewBox="0 0 16 18" fill="none" xmlns="http://www.w3.org/2000/svg">
<path id="tag" d="M3.38654 17.5C3.07897 17.5 2.82807 17.3672 2.63382 17.1016C2.43956 16.8359 2.38291 16.5437 2.46385 16.225L3.14372 13.25H0.982682C0.65893 13.25 0.399929 13.1129 0.205678 12.8388C0.0114265 12.564 -0.04523 12.2583 0.0357079 11.9219C0.0842707 11.674 0.197584 11.4792 0.375647 11.3375C0.553711 11.1958 0.756056 11.125 0.982682 11.125H3.62935L4.60061 6.875H1.95394C1.63019 6.875 1.37118 6.73794 1.17693 6.46381C0.982682 6.18898 0.926025 5.88333 1.00696 5.54688C1.05553 5.29896 1.16884 5.10417 1.3469 4.9625C1.52497 4.82083 1.72731 4.75 1.95394 4.75H5.08623L5.88752 1.27031C5.93608 1.0401 6.0413 0.854166 6.20318 0.7125C6.36505 0.570833 6.55931 0.5 6.78593 0.5C7.0935 0.5 7.3444 0.632812 7.53865 0.898438C7.7329 1.16406 7.78956 1.45625 7.70862 1.775L7.02875 4.75H10.9138L11.7151 1.27031C11.7636 1.0401 11.8688 0.854166 12.0307 0.7125C12.1926 0.570833 12.3868 0.5 12.6135 0.5C12.921 0.5 13.1719 0.632812 13.3662 0.898438C13.5604 1.16406 13.6171 1.45625 13.5362 1.775L12.8563 4.75H15.0173C15.3411 4.75 15.6001 4.88706 15.7943 5.16119C15.9886 5.43602 16.0452 5.74167 15.9643 6.07812C15.9157 6.32604 15.8024 6.52083 15.6244 6.6625C15.4463 6.80417 15.2439 6.875 15.0173 6.875H12.3706L11.3994 11.125H14.0461C14.3698 11.125 14.6288 11.2621 14.8231 11.5362C15.0173 11.811 15.074 12.1167 14.993 12.4531C14.9445 12.701 14.8312 12.8958 14.6531 13.0375C14.475 13.1792 14.2727 13.25 14.0461 13.25H10.9138L10.1125 16.7297C10.0639 16.9599 9.9587 17.1458 9.79682 17.2875C9.63495 17.4292 9.44069 17.5 9.21407 17.5C8.9065 17.5 8.6556 17.3672 8.46135 17.1016C8.2671 16.8359 8.21044 16.5437 8.29138 16.225L8.97126 13.25H5.08623L4.28495 16.7297C4.23639 16.9599 4.13117 17.1458 3.96929 17.2875C3.80742 17.4292 3.61316 17.5 3.38654 17.5ZM5.57186 11.125H9.45688L10.4281 6.875H6.54312L5.57186 11.125Z" fill="black"/>
</svg>
